<svg width="12" height="18" viewBox="0 0 12 18" fill="none" xmlns="http://www.w3.org/2000/svg">
<mask id="path-1-outside-1_555_4" maskUnits="userSpaceOnUse" x="-1" y="-1" width="15" height="20" fill="black">
<rect fill="white" x="-1" y="-1" width="15" height="20"/>
<path d="M11.793 18H8.14844L5.24219 11.0156L4.1875 11.9766V18H0.894531V0.867188H4.1875V8.76562C4.25781 8.46094 4.38281 8.12109 4.5625 7.74609C4.75 7.36328 4.96875 6.93359 5.21875 6.45703L8.21875 0.867188H11.7461L7.5625 8.49609L11.793 18Z"/>
</mask>
<path d="M11.793 18H8.14844L5.24219 11.0156L4.1875 11.9766V18H0.894531V0.867188H4.1875V8.76562C4.25781 8.46094 4.38281 8.12109 4.5625 7.74609C4.75 7.36328 4.96875 6.93359 5.21875 6.45703L8.21875 0.867188H11.7461L7.5625 8.49609L11.793 18Z" fill="#C492B1"/>
<path d="M11.793 18V19H13.3327L12.7065 17.5933L11.793 18ZM8.14844 18L7.22518 18.3842L7.48143 19H8.14844V18ZM5.24219 11.0156L6.16545 10.6314L5.61938 9.31914L4.5687 10.2764L5.24219 11.0156ZM4.1875 11.9766L3.51401 11.2374L3.1875 11.5349V11.9766H4.1875ZM4.1875 18V19H5.1875V18H4.1875ZM0.894531 18H-0.105469V19H0.894531V18ZM0.894531 0.867188V-0.132812H-0.105469V0.867188H0.894531ZM4.1875 0.867188H5.1875V-0.132812H4.1875V0.867188ZM4.1875 8.76562H3.1875L5.16189 8.99048L4.1875 8.76562ZM4.5625 7.74609L3.6644 7.30621L3.66068 7.31397L4.5625 7.74609ZM5.21875 6.45703L4.33759 5.98412L4.3332 5.99248L5.21875 6.45703ZM8.21875 0.867188V-0.132812H7.62052L7.33763 0.3943L8.21875 0.867188ZM11.7461 0.867188L12.6229 1.34802L13.435 -0.132812H11.7461V0.867188ZM7.5625 8.49609L6.68569 8.01526L6.44734 8.4499L6.64892 8.90275L7.5625 8.49609ZM11.793 17H8.14844V19H11.793V17ZM9.0717 17.6158L6.16545 10.6314L4.31893 11.3998L7.22518 18.3842L9.0717 17.6158ZM4.5687 10.2764L3.51401 11.2374L4.86099 12.7158L5.91568 11.7548L4.5687 10.2764ZM3.1875 11.9766V18H5.1875V11.9766H3.1875ZM4.1875 17H0.894531V19H4.1875V17ZM1.89453 18V0.867188H-0.105469V18H1.89453ZM0.894531 1.86719H4.1875V-0.132812H0.894531V1.86719ZM3.1875 0.867188V8.76562H5.1875V0.867188H3.1875ZM5.16189 8.99048C5.21131 8.77633 5.30665 8.50726 5.46432 8.17821L3.66068 7.31397C3.45897 7.73493 3.30431 8.14554 3.21311 8.54077L5.16189 8.99048ZM5.46056 8.18596C5.64312 7.81324 5.85753 7.39198 6.1043 6.92158L4.3332 5.99248C4.07997 6.47521 3.85688 6.91332 3.66444 7.30623L5.46056 8.18596ZM6.09987 6.92992L9.09987 1.34008L7.33763 0.3943L4.33763 5.98414L6.09987 6.92992ZM8.21875 1.86719H11.7461V-0.132812H8.21875V1.86719ZM10.8693 0.386355L6.68569 8.01526L8.43931 8.97693L12.6229 1.34802L10.8693 0.386355ZM6.64892 8.90275L10.8794 18.4067L12.7065 17.5933L8.47608 8.08943L6.64892 8.90275Z" fill="#412234" mask="url(#path-1-outside-1_555_4)"/>
</svg>
