<svg width="79" height="110" viewBox="0 0 79 110" fill="none" xmlns="http://www.w3.org/2000/svg">
<g clip-path="url(#clip0_38_134)">
<path d="M64.68 73.5202C64.53 75.1802 65.43 77.6302 67.48 77.2502C68 79.2602 68.85 79.0002 67.17 80.4602C67.11 80.5102 66.73 80.4502 66.65 80.6202C66.4 81.1202 66.32 81.9902 65.92 82.6902C65.26 83.8702 64.05 84.7502 63.43 85.9502C62.97 86.3002 62.47 86.6102 62.03 86.9902L61.82 86.1602C61.76 86.1102 61.42 86.4102 61.35 86.4702C56.46 89.3002 50.64 91.6402 44.97 92.2702C42.73 92.5202 40.28 92.5402 38.03 92.3702C34.4 92.1102 31.26 91.2102 27.87 89.9902C25.92 88.8202 22.79 87.5802 21.34 85.7902C21.05 85.4302 20.27 83.6102 20.15 83.5602C19.8 83.4302 19.3 84.2502 19.01 82.7302L18.75 83.2002L17.3 76.7702C17.01 76.3302 16.82 77.8702 16.63 77.8602C16.1 76.2502 16.4 74.4502 16.37 72.7802L16.73 73.0902C17.24 70.4702 17.33 73.6202 17.51 74.3902C20.27 86.1202 30.74 90.5302 42.02 89.6802C49.35 89.1302 59.92 85.4002 63.01 78.1202C63.59 76.7502 63.74 74.9702 64.25 73.7702C64.36 73.5202 64.37 73.4702 64.66 73.5102L64.68 73.5202Z" fill="#ADADAC"/>
<path d="M16.38 72.7902C16.41 74.4602 16.11 76.2602 16.64 77.8702C16.84 77.8802 17.02 76.3402 17.31 76.7802L18.76 83.2102L19.02 82.7402C19.31 84.2602 19.81 83.4402 20.16 83.5702C20.28 83.6102 21.06 85.4402 21.35 85.8002C22.8 87.5902 25.93 88.8302 27.88 90.0002C23.3 88.3402 19.54 86.3302 16.06 82.8502C15.91 82.4002 15.73 81.9402 15.75 81.4502L15.13 81.8602C14.3 78.0802 13.44 74.3702 13.89 70.4602C13.62 70.4302 13.5 71.0302 13.27 70.6702C13.32 68.9402 13.55 67.2502 13.79 65.5402C14.57 64.3902 15.53 63.4302 16.48 62.4302C16.14 65.8802 16.31 69.3402 16.38 72.7902Z" fill="#ADADAC"/>
<path d="M67.17 80.4602C67.74 82.0902 67.06 81.7902 66.55 82.9502C65.54 83.9702 64.59 85.0802 63.44 85.9602C64.06 84.7502 65.27 83.8702 65.93 82.7002C66.32 82.0002 66.41 81.1302 66.66 80.6302C66.74 80.4602 67.12 80.5302 67.18 80.4702L67.17 80.4602Z" fill="#ADADAC"/>
<path d="M62.92 59.9401C62.92 59.9401 63.01 60.1401 63.02 60.1501C62.67 66.0201 62.02 71.6901 57.73 76.0601C47.98 86.0001 26.03 85.5501 20.63 71.1901C19.8 68.9901 19.14 65.6601 18.97 63.3101C18.9 62.3301 19.18 61.1201 18.76 60.2501C18.87 60.1601 19.01 59.9601 19.17 59.8401C21.8 57.8301 25.19 56.3201 28.29 55.1801C28.91 55.0301 29.46 54.8201 30.05 54.6601C30.19 54.6301 30.38 54.5701 30.46 54.5601C30.6 54.5301 30.74 54.4901 30.87 54.4601C31.66 54.3201 32.63 54.3801 33.36 53.9401C33.39 53.9401 33.43 53.9401 33.46 53.9401C33.82 53.8901 34.23 53.8701 34.6 53.8401C44.38 52.8501 54.58 54.4601 62.89 59.9501L62.92 59.9401Z" fill="#F7F8FA"/>
<path d="M64.89 61.49C65.23 61.79 66.34 62.57 66.44 62.99C66.58 63.53 66.4 65.88 66.34 66.57C66.1 69.04 64.88 71.29 64.68 73.51C64.38 73.47 64.37 73.51 64.27 73.77C63.76 74.98 63.61 76.76 63.03 78.12C59.94 85.4 49.38 89.12 42.04 89.68C30.76 90.53 20.29 86.12 17.53 74.39C17.35 73.63 17.27 70.48 16.75 73.09L16.39 72.78C16.33 69.32 16.15 65.86 16.49 62.42C16.87 62.02 17.22 61.65 17.63 61.28C17.23 67.58 18.97 77.14 24.31 81.18C33.66 88.25 46.86 87.15 56.34 80.87C64.68 75.34 63.82 70.68 64.68 61.75C64.72 61.33 64.73 61.67 64.89 61.49Z" fill="#CECECE"/>
<path d="M64.37 60.9801C64.54 61.1201 64.73 61.3601 64.89 61.5001C64.73 61.6701 64.72 61.3401 64.68 61.7601C63.81 70.6901 64.68 75.3501 56.34 80.8801C46.86 87.1601 33.66 88.2601 24.31 81.1901C18.97 77.1501 17.23 67.5901 17.63 61.2901C18.06 60.9001 18.29 60.6401 18.77 60.2501C19.19 61.1201 18.91 62.3301 18.98 63.3101C19.15 65.6501 19.81 68.9901 20.64 71.1901C26.04 85.5501 48 86.0001 57.74 76.0601C62.03 71.6901 62.67 66.0201 63.03 60.1501C63.46 60.4401 63.96 60.6501 64.38 60.9801H64.37Z" fill="#CECECE"/>
<path d="M36.69 97.6701C36.87 99.2401 36.64 101.26 36.69 102.9C36.72 103.89 37.6 105.47 36.17 105.85C36.12 105.66 34.86 104.42 34.62 104.19C34.27 103.87 33.98 103.63 33.58 103.36C33.47 103.29 33.48 103.26 33.48 103.26C33.67 101.26 32.55 99.7601 31.15 98.4901C30.45 97.8601 29.66 97.6201 28.92 96.7801C28.4 96.1801 27.89 94.9301 27.31 94.4501C27.04 94.2301 23.31 91.9001 23.06 91.8601C21.78 91.6701 21.77 92.5601 21.61 92.5901C21.34 92.6401 19.35 90.5601 19.28 90.2101C19.08 89.2001 20.22 88.7201 20.94 88.3401C25.83 91.8201 31.6 93.5001 36.59 96.6801C36.51 97.0201 36.66 97.3501 36.69 97.6601V97.6701Z" fill="#393939"/>
<path d="M27.89 90.0001C31.28 91.2201 34.42 92.1201 38.05 92.3801C37.14 94.0001 36.86 95.8301 36.7 97.6701C36.66 97.3501 36.51 97.0301 36.6 96.6901C31.61 93.5001 25.84 91.8201 20.95 88.3501C20.22 87.8301 19.55 87.2201 18.83 86.6901L16.6 84.2001C16.46 83.7601 16.23 83.3001 16.08 82.8501C19.56 86.3301 23.32 88.3501 27.9 90.0001H27.89Z" fill="#393939"/>
<path d="M66.54 82.9502C66.2 83.7202 65.94 84.6302 65.71 85.4402C64.88 86.1602 64.12 86.9702 63.22 87.6202C58.56 90.9702 52.75 93.0802 47.67 95.7002C47.64 95.2502 47.44 92.6302 47.62 92.4902C48.31 92.4902 49.38 92.2002 50.11 91.9702C54.15 90.6702 58.19 89.1702 61.36 86.4802C61.43 86.4202 61.77 86.1202 61.83 86.1702L62.04 87.0002C62.48 86.6202 62.98 86.3202 63.44 85.9602C64.59 85.0802 65.53 83.9702 66.55 82.9502H66.54Z" fill="#393939"/>
<path d="M47.68 95.7002C47.76 96.9202 48.03 98.1602 48.09 99.3802C48.17 100.89 47.42 102.7 48.71 103.78C48.65 103.83 48.49 104.01 48.4 104.09C48 104.45 46.98 105.36 46.85 105.85L46.02 105.28C46.31 100.91 46.64 96.4002 44.98 92.2702C50.65 91.6402 56.46 89.3002 61.36 86.4702C58.2 89.1702 54.15 90.6702 50.11 91.9602C49.38 92.1902 48.31 92.4802 47.62 92.4802C47.45 92.6202 47.64 95.2502 47.67 95.6902L47.68 95.7002Z" fill="#212221"/>
<path d="M20.94 88.3402C20.22 88.7202 19.09 89.2002 19.28 90.2102L18.97 90.4202C18.59 89.4802 18.16 88.3702 17.73 87.5702C17.96 87.9302 17.88 88.4902 17.94 88.7602C17.35 87.2902 17.07 85.7002 16.59 84.2002L18.82 86.6902C19.54 87.2202 20.22 87.8302 20.94 88.3502V88.3402Z" fill="#4F4F50"/>
<path d="M65.71 85.4402C65.18 87.2702 65.07 88.7502 64.26 90.6202C63.95 91.3302 63.31 92.1102 63.02 92.8002C62.95 92.0402 63.47 91.2402 63.54 90.4702C63.62 89.4602 63.41 88.6002 63.23 87.6202C64.13 86.9802 64.89 86.1702 65.72 85.4402H65.71Z" fill="#4F4F50"/>
<path d="M61.26 100.57C61.26 100.57 60.94 100.81 60.74 100.41C60.9 99.8901 60.88 99.3301 60.95 98.8001C61.01 98.3201 61.15 97.9201 61.26 97.4501C61.66 95.8201 62.36 94.3201 63.02 92.7901C63.32 92.1001 63.96 91.3201 64.26 90.6101L61.25 100.56L61.26 100.57Z" fill="#7C7C7C"/>
<path d="M18.97 90.4101C20.24 93.5801 21.25 96.8701 22.18 100.15C21.96 100.21 22.24 100.62 21.77 100.31C21.7 100.24 21.59 98.7801 21.25 99.2201C20.44 95.7401 18.66 92.1301 17.93 88.7501C17.87 88.4801 17.95 87.9201 17.72 87.5601C18.16 88.3701 18.59 89.4701 18.96 90.4101H18.97Z" fill="#656665"/>
<path d="M33.48 103.26C32.59 102.68 31.31 102.01 30.37 101.5C28.31 100.38 25.3 98.9202 22.91 100.15C22.84 100.09 22.22 100.15 22.18 100.15C21.24 96.8602 20.23 93.5802 18.97 90.4102L19.28 90.2002C19.35 90.5502 21.34 92.6302 21.61 92.5802C21.77 92.5502 21.78 91.6702 23.06 91.8502C23.31 91.8902 27.04 94.2202 27.31 94.4402C27.88 94.9202 28.39 96.1802 28.92 96.7702C29.66 97.6102 30.45 97.8502 31.15 98.4802C32.55 99.7402 33.67 101.25 33.48 103.25V103.26Z" fill="#393939"/>
<path d="M36.18 105.85C36.18 105.85 35.97 105.93 35.97 106.01C36.03 106.71 36.17 107.34 35.5 107.82C34.11 108.82 25.73 109.39 23.74 109.37C24.06 109.06 24.63 108.55 24.78 108.13C27.92 108.08 33.68 107.89 34.63 104.19C34.88 104.42 36.13 105.66 36.18 105.85Z" fill="#393939"/>
<path d="M24.15 106.89C23.19 106.99 22.7 108.25 22.7 109.12C22.91 108.74 24.25 107.63 24.36 107.41L24.67 107.51C24.6 107.78 24.78 108.1 24.77 108.13C24.63 108.55 24.06 109.06 23.73 109.37C22.78 109.37 23.25 109.38 22.43 109.89C22.74 109.28 21.41 108.69 21.19 108.75C20.94 108.81 20.84 109.88 20.36 109.79C19.95 109.71 19.94 108.46 20 108.13C20.03 107.96 20.21 107.57 20.31 107.4C20.49 107.11 20.65 106.83 20.98 106.67C21.43 106.67 21.23 107.44 21.71 107.5C22.45 107.59 22.77 105.71 24.15 106.88V106.89Z" fill="#393939"/>
<path d="M18.97 105.75C18.59 106.04 17.93 107.11 18.24 107.62C18.24 107.63 18.22 107.84 18.14 107.93C18.01 107.89 17.9 107.72 17.88 107.72C17.57 107.85 17.56 109.41 16.84 109.07C16.12 108.73 16.34 107.09 16.79 106.69C16.84 106.65 17.39 106.56 17.46 106.48C18.04 105.91 18.41 104.7 18.96 105.75H18.97Z" fill="#4F4F50"/>
<path d="M34.62 104.2C33.68 107.9 27.91 108.08 24.77 108.14C24.78 108.11 24.6 107.79 24.67 107.52L33.58 103.37C33.97 103.64 34.27 103.88 34.62 104.2Z" fill="#393939"/>
<path d="M30.37 101.5C28.36 100.7 26.2 100.08 24 100.26C23.92 100.26 23.09 100.94 22.5 100.42C22.61 100.28 22.77 100.24 22.91 100.16C25.3 98.9303 28.31 100.39 30.37 101.51V101.5Z" fill="#7C7C7C"/>
<path d="M22.18 100.15C22.18 100.15 22.84 100.09 22.91 100.15C22.76 100.22 22.6 100.27 22.5 100.41C23.09 100.93 23.92 100.26 24 100.25C26.21 100.07 28.37 100.69 30.37 101.49C31.31 102 32.59 102.68 33.48 103.25C33.48 103.25 33.48 103.28 33.58 103.35L24.67 107.5L24.36 107.4C24.5 107.11 24.35 107.05 24.15 106.88C22.78 105.72 22.45 107.59 21.71 107.5C21.24 107.44 21.43 106.67 20.98 106.67C20.65 106.82 20.48 107.11 20.31 107.4C19.84 107.15 19.35 107.84 18.96 108.02C18.4 107.99 18.65 108.07 18.13 107.92C18.22 107.83 18.22 107.62 18.23 107.61C18.54 107.21 20.47 105.74 19.84 105.43C19.47 105.37 19.23 105.54 18.96 105.74C18.41 104.69 18.03 105.9 17.46 106.47C17.38 106.55 16.84 106.63 16.79 106.68C15.7 105.71 15.32 106.79 14.46 107.3C13.91 106.44 14.83 105.01 15.6 104.61C16.08 104.36 16.69 104.43 16.74 104.4C16.88 104.33 17.15 103.68 17.31 103.52C18.53 102.28 19.7 101.2 21.51 100.88L21.67 100.72C21.45 100.24 21.37 99.7202 21.26 99.2202C21.6 98.7802 21.71 100.24 21.78 100.31C22.26 100.63 21.98 100.21 22.19 100.15H22.18Z" fill="#4F4F50"/>
<path d="M20.32 107.41C20.22 107.57 20.04 107.96 20.01 108.14C19.65 108.23 19.27 108.05 18.97 108.04C19.36 107.86 19.85 107.16 20.32 107.42V107.41Z" fill="#393939"/>
<path d="M22.24 101.6C23.78 101.41 25.33 101.83 26.85 101.96C24.69 102.6 22.4 103.17 20.68 104.71L24.83 101.91C23.3 101.84 21.8 102.03 20.37 102.53L18.25 103.72C19.35 102.8 20.77 101.78 22.24 101.6Z" fill="#656665"/>
<path d="M29.49 102.85C29.59 102.85 29.7 102.85 29.8 102.85C27.94 103.87 25.55 104.29 23.84 105.8C24.58 104.37 27.99 102.85 29.49 102.85Z" fill="#656665"/>
<path d="M18.25 107.62C17.94 107.12 18.59 106.04 18.98 105.75C19.25 105.55 19.49 105.37 19.86 105.44C20.5 105.74 18.56 107.22 18.25 107.62Z" fill="#656665"/>
<path d="M24.15 106.89C24.34 107.05 24.49 107.12 24.36 107.41C24.26 107.63 22.92 108.74 22.7 109.12C22.7 108.25 23.19 106.99 24.15 106.89Z" fill="#656665"/>
<path d="M63.02 92.8001C62.36 94.3301 61.66 95.8301 61.26 97.4601L61.16 92.2301C60.86 91.8401 60.32 91.7901 59.86 91.8701C59.61 91.9101 55.91 94.2101 55.61 94.4601C55.03 94.9501 54.59 96.1201 54.11 96.6901C52.45 98.6401 48.83 99.7201 49.55 103.17C49.53 103.18 49.36 103.36 49.34 103.38C49.17 103.5 48.86 103.68 48.72 103.79C47.42 102.7 48.18 100.89 48.1 99.3901C48.03 98.1701 47.77 96.9301 47.69 95.7101C52.77 93.0901 58.58 90.9701 63.24 87.6301C63.42 88.6101 63.64 89.4701 63.55 90.4801C63.49 91.2501 62.96 92.0501 63.03 92.8101L63.02 92.8001Z" fill="#393939"/>
<path d="M61.26 97.4602C61.15 97.9202 61.01 98.3202 60.95 98.8102C60.46 99.0102 60.66 99.8902 60.43 100.26C58.07 99.3002 55.18 99.8802 53.02 101.09C52.71 101.26 52.21 101.82 52.04 101.92C51.23 102.37 50.33 102.67 49.55 103.16C48.83 99.7202 52.45 98.6302 54.11 96.6802C54.6 96.1102 55.03 94.9502 55.61 94.4502C55.9 94.2002 59.61 91.9002 59.86 91.8602C60.32 91.7902 60.86 91.8302 61.16 92.2202L61.26 97.4502V97.4602Z" fill="#393939"/>
<path d="M58.25 108.13C58.28 108.26 58.73 109 58.82 109.06C58.99 109.19 59.46 109.15 59.49 109.16C59.58 109.35 59.09 109.46 59.02 109.47C57.59 109.66 48.19 108.49 47.31 107.71C46.9 107.34 46.71 106.36 46.84 105.84C46.97 105.32 47.99 104.44 48.39 104.08C48.39 104.34 48.41 104.83 48.49 105.06C49.36 107.43 56 108.39 58.23 108.12L58.25 108.13Z" fill="#393939"/>
<path d="M67.89 105.23C68.2 105.57 69.16 107.07 68.46 107.3C68.33 107.34 66.88 105.61 66.18 106.47C66.09 106.58 67.11 108.77 66.08 109.06C65.49 109.22 65.39 108.17 65.2 107.82C65.07 107.57 64.87 107.43 64.68 107.09C64.4 106.59 64.37 105.57 63.44 105.43C63.03 104.62 64.62 104.6 65.15 104.6C65.21 104.6 65.35 104.91 65.56 104.91C65.64 104.91 65.95 104.6 65.97 104.6C66.76 104.57 67.18 104.99 67.89 105.22V105.23Z" fill="#4F4F50"/>
<path d="M62.61 107.31C62.77 107.6 62.88 107.79 62.92 108.14C62.96 108.46 62.99 109.7 62.66 109.8C62.1 109.97 62.01 108.81 61.73 108.76C61.67 108.76 60.73 109.13 60.69 109.17C60.55 109.33 60.76 109.8 60.48 109.9C60.42 109.92 59.72 109.3 59.5 109.17C59.47 109.15 59 109.19 58.83 109.07C58.74 109 58.29 108.27 58.26 108.14C58.21 107.91 58.3 107.56 58.26 107.31C58.56 107.48 58.77 107.71 59.09 107.83C59.24 108.05 59.81 108.86 59.97 108.97C60.13 109.08 60.22 108.86 60.23 108.87C60.43 108.95 60.23 109.21 60.49 109.18L62.2 108.4C61.95 107.81 61.16 107.09 61.94 106.59C62.12 106.57 62.53 107.17 62.61 107.32V107.31Z" fill="#393939"/>
<path d="M64.37 108.03C63.91 108.1 63.38 108.1 62.92 108.13C62.88 107.78 62.77 107.59 62.61 107.3C63.14 107.01 63.81 107.85 64.37 108.03Z" fill="#393939"/>
<path d="M58.25 107.31C58.29 107.56 58.2 107.91 58.25 108.14C56.02 108.42 49.38 107.45 48.51 105.08C48.42 104.85 48.41 104.36 48.41 104.1C48.5 104.02 48.66 103.84 48.72 103.79C48.86 103.68 49.17 103.49 49.34 103.38C50.1 104.23 51.53 104.31 52.6 104.73C54.28 105.39 56.69 106.44 58.25 107.32V107.31Z" fill="#393939"/>
<path d="M60.43 100.26C60.25 100.55 59.66 100.62 59.24 100.57C59.2 100.57 59.14 100.27 59.03 100.26C56.66 100.07 54.04 100.7 52.03 101.92C52.2 101.83 52.7 101.26 53.01 101.09C55.17 99.89 58.06 99.3 60.42 100.26H60.43Z" fill="#7C7C7C"/>
<path d="M63.43 105.44C64.36 105.58 64.39 106.6 64.67 107.1C64.55 107.35 64.52 107.34 64.31 107.2C63.91 106.94 62.18 105.26 63.43 105.44Z" fill="#656665"/>
<path d="M60.95 98.8101C60.88 99.3401 60.9 99.9001 60.74 100.42C60.94 100.82 61.23 100.56 61.26 100.58C61.28 100.58 61.22 100.74 61.31 100.79C62.15 101.19 63.06 101.36 63.9 101.93C64.74 102.5 65.67 103.99 66.18 104.31C66.78 104.69 67.07 104.35 67.89 105.24C67.18 105.01 66.76 104.59 65.97 104.62C65.94 104.62 65.64 104.93 65.56 104.93C65.35 104.93 65.2 104.62 65.15 104.62C64.62 104.62 63.03 104.64 63.44 105.45C62.19 105.27 63.92 106.95 64.32 107.21C64.54 107.35 64.57 107.36 64.68 107.11C64.87 107.44 65.07 107.59 65.2 107.84C64.86 107.82 64.85 107.98 64.37 108.05C63.81 107.88 63.14 107.04 62.61 107.32C62.53 107.18 62.12 106.58 61.94 106.59C61.16 107.1 61.94 107.82 62.2 108.4L60.49 109.18C60.23 109.21 60.43 108.95 60.23 108.87C60.49 108.29 58.81 106.08 58.57 107.06C58.51 107.32 58.94 107.61 59.09 107.84C58.77 107.72 58.56 107.49 58.26 107.32C56.7 106.44 54.3 105.39 52.61 104.73C51.54 104.31 50.1 104.24 49.35 103.38C49.37 103.37 49.54 103.18 49.56 103.17C50.34 102.68 51.23 102.38 52.05 101.93C54.05 100.71 56.68 100.08 59.05 100.27C59.16 100.27 59.22 100.58 59.26 100.58C59.68 100.63 60.27 100.56 60.45 100.27C60.68 99.9001 60.48 99.0201 60.97 98.8201L60.95 98.8101Z" fill="#4F4F50"/>
<path d="M58.72 101.6C60.91 101.5 62.49 101.85 64.16 103.31C62.22 102.33 59.93 101.58 57.79 102.01C58.31 102.24 59.07 102.39 59.55 102.63C59.63 102.67 61.17 103.55 60.59 103.56L56.19 101.95C57.04 101.92 57.89 101.62 58.73 101.59L58.72 101.6Z" fill="#656665"/>
<path d="M52.91 102.74C55.3 103.17 57.95 103.91 59.28 106.11C57.54 104.18 54.98 103.96 52.91 102.74Z" fill="#656665"/>
<path d="M60.22 108.86C60.22 108.86 60.12 109.08 59.96 108.96C59.8 108.84 59.23 108.04 59.08 107.82C58.93 107.6 58.5 107.3 58.56 107.04C58.79 106.06 60.48 108.27 60.22 108.85V108.86Z" fill="#656665"/>
<path d="M64.32 103.47C64.47 103.42 64.81 103.84 64.63 103.88C64.56 103.76 64.26 103.63 64.32 103.47Z" fill="#656665"/>
<path d="M36.69 42.84C38.14 43.13 38.59 44.48 41.2 44.29C42.79 44.17 43.79 43 44.78 42.84C48.27 42.27 49.39 42.6 52.97 41.18C55.25 40.27 57.97 39.15 59.14 36.83C59.23 36.77 60 37.18 60.12 37.24C60.5 37.46 60.98 37.99 61.36 38.28C59.14 41.05 56.64 42.59 53.43 43.98C50.9 45.08 43.88 48.07 41.51 48.54C41.31 48.58 40.97 48.65 40.78 48.64C40.27 48.62 35.14 46.97 34.3 46.67C30.84 45.45 24.39 42.86 21.71 40.56L19.48 38.07C19.94 37.86 20.65 37.21 21.03 37.03C21.15 36.97 21.4 36.81 21.5 36.82C21.77 36.86 25.16 39.63 25.85 40.03C27.5 41 31.02 42.29 32.9 42.62C34.08 42.83 35.7 42.62 36.68 42.83L36.69 42.84Z" fill="#393939"/>
<path d="M71.1 77.14C71.06 77.32 70.6 78.75 70.53 78.8C70.46 78.85 69.64 78.75 69.55 78.7C69.05 78.42 69.1 77.11 68.93 76.68C68.86 76.5 68.63 76.54 68.62 76.52C68.57 76.42 68.51 75.86 68.36 75.79C67.99 75.64 67.53 76.69 66.49 76.1C64.08 74.73 66.56 70.4 66.75 68.38C66.78 68.05 66.97 66.34 66.34 66.57C66.41 65.88 66.58 63.53 66.44 62.99C66.33 62.56 65.22 61.79 64.89 61.49C64.73 61.35 64.54 61.11 64.37 60.97C64.87 61.03 64.79 60.04 64.78 59.78C64.72 57.18 63.6 53.73 63.23 51.07C63.21 50.92 63.14 50.44 63.44 50.5C64.4 53.58 65.41 56.44 66.03 59.67C66.11 60.09 65.92 61.36 66.44 61.43C66.48 58.6 65.71 55.59 64.78 52.93C64.42 51.89 63.81 50.92 63.43 49.87C63.7 49.66 64.19 50.72 64.26 50.85C65.83 53.93 67.36 59.53 67.58 62.98C67.78 66.21 67.29 72.06 68.62 75C68.9 75.63 69.4 75.41 69.66 75.93L69.45 76.03C69.86 76.52 70.57 76.5 71.16 76.6C71.43 76.77 71.15 76.94 71.11 77.12L71.1 77.14Z" fill="#393939"/>
<path d="M17.73 37.97C17.85 38.06 18.36 38.48 18.4 38.49C18.73 38.54 19.19 38.21 19.49 38.08L21.72 40.57C24.4 42.87 30.86 45.47 34.31 46.68L34.41 46.99C29.65 45.18 20.94 42.19 17.67 38.28C17.54 38.12 17.34 37.99 17.72 37.97H17.73Z" fill="#393939"/>
<path d="M68.62 76.5199C68.44 76.6699 67.63 77.2199 67.48 77.2499C65.43 77.6299 64.53 75.1799 64.68 73.5199C64.88 71.2899 66.1 69.0499 66.34 66.5799C66.97 66.3599 66.79 68.0599 66.75 68.3899C66.57 70.4099 64.08 74.7399 66.49 76.1099C67.53 76.6999 67.99 75.6499 68.36 75.7999C68.51 75.8599 68.56 76.4199 68.62 76.5299V76.5199Z" fill="#393939"/>
<path d="M73.07 77.8699C73.04 78.3399 72.82 78.6099 72.86 79.0099C72.87 79.1099 72.97 79.1299 72.96 79.2199C72.86 79.2299 72.85 79.3199 72.75 79.3199C71.46 79.3799 72.17 78.5499 71.04 78.7999C70.88 78.7199 71.27 78.3299 71.3 78.1799C71.97 77.8699 72.49 77.0399 72.54 76.3099C72.66 76.2899 72.86 76.0799 73.06 76.2599C72.98 76.7399 73.09 77.4299 73.06 77.8699H73.07Z" fill="#212221"/>
<path d="M62.92 48.6399C63.1 49.2599 63.25 49.8899 63.44 50.5099C63.14 50.4499 63.21 50.9299 63.23 51.0799C63.61 53.7299 64.72 57.1799 64.78 59.7899C64.78 60.0499 64.87 61.0399 64.37 60.9799C63.96 60.6499 63.45 60.4399 63.02 60.1499C63.02 60.1499 62.93 59.9499 62.92 59.9399C63.26 55.3799 62.82 50.6099 61.88 46.1599C62.41 46.0899 62.88 47.8899 63.02 48.3899C63.06 48.5299 62.89 48.5699 62.92 48.6499V48.6399Z" fill="#393939"/>
<path d="M63.43 49.8899C63.8 50.9299 64.41 51.9099 64.78 52.9499C65.71 55.6099 66.48 58.6199 66.44 61.4499C65.92 61.3799 66.11 60.1099 66.03 59.6899C65.41 56.4599 64.4 53.5999 63.44 50.5199C63.25 49.8999 63.1 49.2699 62.92 48.6499C63.25 48.7299 63.3 49.4999 63.44 49.8899H63.43Z" fill="#212221"/>
<path d="M72.56 76.3198C72.51 77.0398 71.99 77.8698 71.32 78.1898C71.37 77.8698 71.32 77.4998 71.42 77.1498C71.64 76.4798 71.85 76.4098 72.56 76.3198Z" fill="#212221"/>
<path d="M78.46 71.44C78.04 71.39 78.18 71.53 78.15 71.8C78.09 72.27 77.81 73.83 77.84 74.08C77.86 74.24 78.15 74.22 78.15 74.24L76.75 78.07C76.43 78.15 76.54 77.31 76.44 77.24C76.38 77.2 75.24 78.01 75.2 78.07C74.93 78.4 74.97 79.46 74.47 79.83C74.17 79.67 74.29 78.87 74.06 78.79C74 78.77 73.33 79.15 72.97 79.2C72.97 79.11 72.88 79.1 72.87 78.99C73.54 78.69 73.52 77.82 73.91 77.28C73.46 76.87 73.43 77.79 73.08 77.85C73.11 77.42 73 76.72 73.08 76.24C72.89 76.06 72.68 76.28 72.56 76.29C71.85 76.38 71.64 76.45 71.42 77.12H71.11C71.15 76.94 71.43 76.77 71.16 76.6C70.57 76.5 69.86 76.52 69.45 76.03L69.66 75.93C69.41 75.4 68.91 75.63 68.62 75C67.29 72.06 67.78 66.21 67.58 62.98C67.37 59.53 65.83 53.94 64.26 50.85C64.19 50.72 63.7 49.65 63.43 49.87C63.29 49.48 63.24 48.71 62.91 48.63C62.89 48.55 63.05 48.51 63.01 48.37C62.87 47.87 62.4 46.08 61.87 46.14C61.72 45.41 61.32 42.88 60.57 42.72C58.6 42.29 53.27 44.57 51.29 45.41C47.9 46.74 44.32 47.8 41.29 49.87C39.07 48.72 36.73 47.86 34.4 46.97L34.3 46.66C35.14 46.96 40.27 48.6 40.78 48.63C40.97 48.63 41.3 48.57 41.51 48.53C43.87 48.06 50.9 45.07 53.43 43.97C56.64 42.58 59.13 41.04 61.36 38.27C70.58 45.08 76.81 60.35 78.46 71.44Z" fill="#393939"/>
<path d="M67.63 46.5701C69.12 47.8001 70.21 49.8901 71.1 51.6001C74.34 57.8001 76.82 65.2801 77.27 72.2801C75.75 63.1801 72.75 54.2701 67.63 46.5801V46.5701Z" fill="#7C7C7C"/>
<path d="M62.24 39.42C62.6 39.24 63.96 40.82 64.36 41.03C64.43 41.72 61.82 40.28 62.24 39.42Z" fill="#4F4F50"/>
<path d="M72.87 79.01C72.83 78.61 73.05 78.34 73.08 77.87C73.43 77.81 73.46 76.89 73.91 77.3C73.53 77.84 73.55 78.71 72.87 79.01Z" fill="#4F4F50"/>
<path d="M75.3 76.3201C75.65 76.4301 75.41 77.8001 75.2 77.6701L75.3 76.3201Z" fill="#4F4F50"/>
<path d="M74.99 77.7701C75.27 77.7101 75.39 77.9501 75.09 77.9801C75.08 77.9801 74.88 77.8301 74.99 77.7701Z" fill="#7C7C7C"/>
<path d="M61.88 46.1599C62.82 50.6199 63.25 55.3899 62.92 59.9399C54.6 54.4499 44.41 52.8399 34.63 53.8299C34.61 53.5199 33.63 53.7499 33.49 53.9299C33.46 53.9299 33.42 53.9299 33.39 53.9299C32.44 54.0599 31.81 54.2199 30.9 54.4499C30.67 54.4899 30.53 54.5399 30.49 54.5499C30.41 54.5699 30.37 54.4099 30.23 54.4499C30.14 54.4699 30.09 54.6499 30.07 54.6599C29.28 54.8399 29.05 54.8999 28.31 55.1799C27.95 55.2699 26.59 55.6699 26.44 55.4399C26.21 52.1799 24.73 50.4899 28.25 48.6499C28.39 48.5799 28.94 48.5599 28.98 48.5499C29.95 48.0999 32.24 46.9299 33.23 46.9999C34.76 47.1099 39.17 49.6399 40.8 50.3199H41.32C44.57 48.6099 47.95 46.8899 51.32 45.4499C53.29 44.5999 58.62 42.3199 60.6 42.7599C61.34 42.9199 61.74 45.4499 61.9 46.1799L61.88 46.1599Z" fill="#4F4F50"/>
<path d="M33.38 53.9299C32.65 54.3699 31.68 54.3099 30.89 54.4499C31.8 54.2199 32.43 54.0599 33.38 53.9299Z" fill="#4F4F50"/>
<path d="M30.06 54.6499C29.47 54.7999 28.91 55.0199 28.3 55.1699C29.05 54.8999 29.27 54.8299 30.06 54.6499Z" fill="#4F4F50"/>
<path d="M34.62 53.8299C34.25 53.8699 33.84 53.8899 33.48 53.9299C33.62 53.7399 34.6 53.5199 34.62 53.8299Z" fill="#4F4F50"/>
<path d="M59.13 57.0398C59.49 57.0798 58.85 57.5498 58.82 57.5598C58.39 57.6198 59.08 57.0398 59.13 57.0398Z" fill="#656665"/>
<path d="M30.89 54.45C30.75 54.49 30.61 54.5199 30.48 54.5499C30.53 54.5499 30.66 54.49 30.89 54.45Z" fill="#4F4F50"/>
<path d="M30.48 54.5498C30.4 54.5698 30.2 54.6198 30.07 54.6498C30.08 54.6498 30.13 54.4698 30.23 54.4398C30.37 54.3998 30.4 54.5598 30.49 54.5398L30.48 54.5498Z" fill="#4F4F50"/>
<path d="M4.36 29.2599C4.14 29.0799 3.82 28.9399 3.53 28.9499C1.87 29.0099 2.88 32.0699 4.41 31.6399C4.56 31.5999 5.02 30.9499 4.98 30.8099C5.03 31.1499 4.81 32.0799 5.45 32.1599C5.77 32.1999 6.26 31.3199 6.64 31.4299C6.35 31.5999 5.7 32.2799 5.5 32.5699C5.33 32.8199 5.3 32.9599 5.19 33.1899C4.72 34.1499 4.26 35.2299 4.88 36.2499C5.05 36.5299 5.87 37.1099 6.18 37.1299C7.38 37.1899 7.9 35.0199 9.08 34.6399C10.18 34.2899 12.17 35.0499 12.34 33.1899C12.35 33.0499 12.36 32.7899 12.34 32.6699C12.41 32.4299 12.55 32.8999 12.55 32.9299C12.41 36.1299 13.81 39.7199 16.33 41.7899C17.49 42.7499 18.66 43.3899 20.22 42.8799L19.18 59.8299C19.01 59.9599 18.87 60.1599 18.77 60.2399C18.29 60.6299 18.06 60.8799 17.63 61.2799C17.2 61.6799 16.87 62.0199 16.49 62.4199C15.53 63.4199 14.57 64.3799 13.8 65.5299C14.23 62.4399 14.89 59.2099 15.67 56.1999C16.09 54.5799 16.85 52.8399 17.22 51.1699C11.89 50.8699 8.23 47.1499 5.72 42.7699C5.11 41.6999 2.16 35.2699 2.51 34.4799C2.53 34.4399 2.92 34.2399 3.13 34.0099C3.28 33.8499 3.38 33.6099 3.6 33.4899C2.86 33.5699 1.68 33.2599 1.16 32.7099C1.12 32.6599 1.07 32.3599 1.06 32.3499C1.21 32.4399 1.3 32.5099 1.32 32.2499C1.43 30.6899 1.18 30.0299 1.79 28.5199C2.31 28.0099 2.68 29.0199 2.77 29.0399C2.86 29.0599 4.13 28.2699 4.38 29.2499L4.36 29.2599Z" fill="#393939"/>
<path d="M3.11 34.03C2.9 34.25 2.5 34.46 2.49 34.5C2.14 35.29 5.09 41.72 5.7 42.79C8.21 47.16 11.87 50.89 17.2 51.19C16.83 52.86 16.06 54.59 15.65 56.22C12.64 56.22 9.95 54.26 7.98 52.13C4.41 48.27 2.3 42.87 1.45 37.72C1.37 37.22 1.33 34.89 1.24 34.71C1.15 34.53 0.05 34.52 0 33.73C0.7 34.77 2.06 34.06 3.11 34.04V34.03Z" fill="#393939"/>
<path d="M1.03999 32.3699C1.03999 32.3699 1.09999 32.6899 1.13999 32.7299C1.65999 33.2799 2.83999 33.5899 3.57999 33.5099C3.35999 33.6299 3.26999 33.8599 3.10999 34.0299C2.05999 34.0499 0.699994 34.7599 -6.09783e-06 33.7199C-0.0800061 32.5899 0.729994 33.3899 0.829994 33.1499C0.399994 32.7999 0.269994 32.2399 0.309994 31.6999C0.639994 31.6199 0.859994 32.1599 1.03999 32.3699Z" fill="#393939"/>
<path d="M8.4 25.0099C7.82 25.0399 6.58 25.3499 6.12 25.7399C5.75 24.9699 5.6 22.2699 6.85 23.9299C7.38 24.6299 6.92 25.2499 8.4 25.0199V25.0099Z" fill="#4F4F50"/>
<path d="M10.16 25.4301C10.04 26.0501 8.96 25.1401 8.92 24.9101C8.88 24.7101 9.19 23.5801 9.49 23.5601C10.27 23.9301 10.03 24.8301 10.16 25.4301Z" fill="#393939"/>
<path d="M14.2 26.88L13.06 26.36C13.26 26.06 13.27 24.88 13.84 25.01C14.47 25.46 14.08 26.26 14.2 26.88Z" fill="#393939"/>
<path d="M11.92 33.1999C10.43 33.4799 9.30998 33.4399 8.02998 34.3399C7.59998 34.6499 6.80998 35.7299 6.36998 35.8899C5.01998 36.3899 5.01998 34.0099 5.17998 33.1999C5.28998 32.9699 5.31998 32.83 5.48998 32.58C5.92998 32.53 6.30998 31.7099 6.67998 31.6499C7.38998 31.5199 9.33998 32.0599 10.1 32.1699C10.94 32.2799 12.28 31.5299 11.91 33.2099L11.92 33.1999Z" fill="#DE6C5B"/>
<path d="M11.92 33.1999C12.05 33.1799 12.2 33.2199 12.33 33.1999C12.16 35.0599 10.17 34.2999 9.06998 34.6499C7.87998 35.0299 7.36998 37.1999 6.16998 37.1399C5.86998 37.1199 5.03998 36.5399 4.86998 36.2599C4.24998 35.2399 4.70998 34.1599 5.17998 33.1999C5.01998 34.0099 5.01998 36.3999 6.36998 35.8899C6.79998 35.7299 7.58998 34.6399 8.02998 34.3399C9.29998 33.4399 10.43 33.4799 11.92 33.1999Z" fill="#CD5B4A"/>
<path d="M12.34 32.6799C12.36 32.7999 12.35 33.0599 12.34 33.1999C12.21 33.2199 12.05 33.1799 11.93 33.1999C12.29 31.5199 10.96 32.2799 10.12 32.1599C9.35998 32.0599 7.40998 31.5099 6.69998 31.6399C6.32998 31.7099 5.93998 32.5199 5.50998 32.5699C5.70998 32.2799 6.35998 31.5999 6.64998 31.4299C8.09998 30.5799 11.94 30.5999 12.35 32.6699L12.34 32.6799Z" fill="#FD9988"/>
<path d="M3.52998 28.95C3.64998 29.47 3.61998 30.4399 4.19998 30.7099C4.30998 30.7599 4.91998 30.5999 4.97998 30.8099C5.01998 30.9499 4.55998 31.5999 4.40998 31.6399C2.87998 32.0699 1.86998 29 3.52998 28.95Z" fill="#FD9988"/>
<path d="M4.36 29.26C4.95 29.73 4.88 30.1799 4.98 30.8099C4.92 30.5899 4.31 30.7599 4.2 30.7099C3.62 30.4399 3.65 29.47 3.53 28.95C3.82 28.95 4.14 29.08 4.36 29.26Z" fill="#FD9988"/>
<path d="M10.16 25.4299C10.2 25.6199 10.06 25.7999 10.16 26.0999C10.19 26.1799 10.96 27.4799 11.04 27.4999C11.08 27.4999 11.45 27.0299 11.56 26.9799C12.09 26.7199 12.78 26.7699 13.06 26.3599L14.2 26.8799C14.32 27.5099 15.12 28.2399 15.24 29.1099C15.69 32.5199 13.82 35.1999 17.73 37.9699C17.35 37.9899 17.54 38.1199 17.68 38.2799C20.95 42.1899 29.66 45.1699 34.42 46.9899C36.76 47.8799 39.09 48.7399 41.31 49.8899C44.34 47.8299 47.92 46.7599 51.31 45.4299C47.94 46.8699 44.56 48.5899 41.31 50.2999H40.79C39.16 49.6299 34.76 47.0899 33.22 46.9799C32.23 46.9099 29.94 48.0799 28.97 48.5299C28.94 48.5499 28.38 48.5599 28.24 48.6299C24.72 50.4699 26.2 52.1599 26.43 55.4199C26.57 55.6499 27.93 55.2499 28.3 55.1599C25.2 56.2999 21.81 57.8199 19.18 59.8199L20.22 42.8699C18.66 43.3799 17.5 42.7399 16.33 41.7799C13.81 39.7099 12.41 36.1199 12.55 32.9199C12.55 32.8899 12.42 32.4299 12.34 32.6599C11.93 30.5899 8.08999 30.5699 6.63999 31.4199C6.24999 31.2999 5.76999 32.1799 5.44999 32.1499C4.80999 32.0699 5.03999 31.1399 4.97999 30.7999C4.87999 30.1699 4.93999 29.7099 4.35999 29.2499C4.11999 28.2799 2.83999 29.0599 2.74999 29.0399C2.65999 29.0199 2.28999 28.0099 1.76999 28.5199C1.89999 28.1899 2.26999 27.9099 2.28999 27.8499C2.36999 27.5099 1.73999 25.8299 2.23999 25.6199C3.64999 25.9299 2.98999 27.6699 4.61999 27.5899C5.48999 27.5499 5.33999 26.3799 6.11999 25.7199C6.57999 25.3299 7.81999 25.0299 8.39999 24.9899C8.50999 24.9899 8.94999 25.3299 8.91999 24.8899C8.96999 25.1199 10.05 26.0299 10.16 25.4099V25.4299Z" fill="#4F4F50"/>
<path d="M9.22998 28.85C8.24998 30.91 6.38998 28.46 7.46998 27.09C7.92998 27.02 8.05998 26.58 8.55998 26.88C8.57998 27.6 8.73998 28.3 9.22998 28.85Z" fill="#FD9988"/>
<path d="M15.19 34.8599L18.4 41.0799C16.36 39.8099 15.42 37.1499 15.19 34.8599Z" fill="#7C7C7C"/>
<path d="M9.23 28.8499C8.74 28.3099 8.58 27.5999 8.56 26.8799C8.06 26.5799 7.93 27.0199 7.47 27.0899C8.38 25.9299 10.04 27.1599 9.23 28.8499Z" fill="#FD9988"/>
<path d="M13.12 27.81C15.22 27.52 15.29 32.35 12.71 30.92C11.48 30.24 12.02 27.96 13.12 27.81Z" fill="#2E2729"/>
<path d="M13.01 28.0201C15.06 27.5701 15 32.0301 12.8 30.8201C11.77 30.2501 12.06 28.2301 13.01 28.0201Z" fill="#FD9988"/>
<path d="M64.06 28.02C64.17 26.84 63.99 25.38 63.28 24.39C60.75 24.87 61.63 26.94 60.79 28.74C59.83 28.38 58.81 28.52 57.94 27.91C60.05 24.15 55.86 21.97 54.42 19.46C54.08 18.86 54.13 18.05 53.9 17.49C52.82 14.9 48.95 13.1 46.39 14.54C44.16 15.79 45.14 19.32 45.82 21.28C46.09 22.07 46.44 22.74 46.86 23.46C47.09 23.85 47.34 24.22 47.59 24.6L45.26 23.98C42.38 21.27 35.87 22.95 33.29 25.22C33.52 24.69 33.91 24.26 34.22 23.77C34.63 23.12 35.09 22.42 35.36 21.7C35.73 20.72 36.27 18.62 36.29 17.61C36.41 12.21 28.95 13.67 27.48 17.3C27.25 17.87 27.25 18.82 26.96 19.37C25.64 21.87 20.7 24.8 23.75 28.44C23.16 28.4 22.74 28.89 22.14 29.06C21.71 29.18 21.09 29.24 20.64 29.27C20.49 28.74 20.03 25.99 19.66 25.85C19.49 25.79 19.19 26.09 19.09 25.9C18.86 25.48 19.25 23.37 19.61 22.89L19.4 22.79C18.92 23.41 18.98 24.44 18.26 24.76C18.26 23.64 18.84 22.72 19.3 21.75C19.36 21.63 19.29 21.3 19.3 21.28C19.95 20.08 21.31 19.09 22.41 18.33L19.82 18.69C20.53 17.15 21.33 15.62 21.89 14.03C22.31 13.94 22.16 13.76 22.2 13.72C22.42 13.53 22.38 13.48 22.51 13.31C23.1 12.54 23.51 11.62 24.06 10.82C24.25 11.14 24.24 11.35 24.63 11.55C24.95 11 26.21 6.99001 26.5 7.00001C26.54 7.00001 28.96 5.23 29 5.23C30.63 5.19 33.1 7.84 34.01 6.31C34.02 6.28 33.66 6.25 33.85 6.05C33.9 6 35.08 5.65 35.2 5.64C37.47 5.29 38.8 6.7 41.21 6.47C41.57 6.44 46.15 5.33 46.39 5.23C46.9 5 47.06 4.42 47.12 4.4C47.93 4.09 51.321 4.68998 52.091 5.22998C54.371 6.82999 60.27 13.91 61 16.5C61.25 17.38 59.64 17.71 59.92 18.34C62.16 20.28 64.79 24.08 64.48 27.15C64.47 27.28 64.32 28.04 64.07 28.03L64.06 28.02Z" fill="#F7F8FA"/>
<path d="M19.28 21.28C19.28 21.28 19.34 21.62 19.28 21.75C18.82 22.72 18.24 23.64 18.24 24.76C18.96 24.44 18.9 23.41 19.38 22.79L19.59 22.89C19.23 23.37 18.84 25.47 19.07 25.9C19.17 26.08 19.47 25.79 19.64 25.85C20.02 25.99 20.48 28.74 20.62 29.27C20.71 29.6 20.72 30.2 20.83 30.57C22.57 36.29 29.76 39.18 35.29 39.12C35.53 39.91 35.5 40.84 35.86 41.61C32.14 41.84 28.36 40.72 25.24 38.71C23.87 37.82 22.52 36.04 20.89 36.02C21.46 34.49 20.44 35.51 19.96 35.29C19.58 35.12 19.87 33.91 19.29 33.94C19.26 33.68 19.36 32.58 19.24 32.49L18.36 33.06L18.15 32.96L18.05 29.54L17.22 29.85C16.06 26.83 16.92 24.88 18.15 22.18C18.3 21.85 18.86 21.26 18.98 20.99L19.29 21.3L19.28 21.28Z" fill="url(#paint0_linear_38_134)"/>
<path d="M35.87 41.6C36.02 41.92 36.73 42.36 36.7 42.84C35.71 42.64 34.1 42.84 32.92 42.63C31.04 42.3 27.53 41.01 25.87 40.04C25.18 39.64 21.78 36.87 21.52 36.83C21.42 36.81 21.17 36.98 21.05 37.04C20.32 37.17 20.65 35.91 20.38 35.8C19.48 36.5 19.36 34.57 19.29 33.93C19.88 33.9 19.58 35.11 19.96 35.28C20.44 35.49 21.46 34.47 20.89 36.01C22.52 36.03 23.87 37.82 25.24 38.7C28.36 40.72 32.14 41.83 35.86 41.6H35.87Z" fill="#CECECE"/>
<path d="M19.28 21.2801L18.97 20.9701C19.3 20.2201 19.47 19.4001 19.8 18.6901L22.39 18.3301C21.3 19.1001 19.94 20.0801 19.28 21.2801Z" fill="#CECECE"/>
<path d="M47.58 24.6001C48.14 25.4701 49.44 27.3801 50.07 28.1201C50.06 29.0101 50.37 29.9201 50.48 30.8101H50.27C50.06 29.2701 48.27 26.5301 47.01 25.6301C46.62 25.3501 45.22 24.8701 45.14 24.8001C45.03 24.6801 45.57 24.3701 44.62 23.8701C43.92 23.5001 43.22 23.7001 42.86 23.5601C42.69 23.4901 42.97 23.2801 42.86 23.2501C41.27 22.8201 39.8 22.8201 38.2 23.2501C38.1 23.2801 38.2 23.5301 38.1 23.5601C37.72 23.6801 37.05 23.5501 36.55 23.8701C35.86 24.3101 36.26 24.5701 36.03 24.8001C35.94 24.8901 34.83 25.2401 34.58 25.4201C33.74 26.0201 32.64 27.2701 32.14 28.1701C31.71 28.9401 31.58 29.9701 31 30.6101C31.07 29.8301 31.38 29.0701 31.41 28.2801C31.28 28.3601 31 28.4701 30.89 28.5401C31.77 27.6401 32.36 26.0301 33.27 25.2201C35.85 22.9401 42.36 21.2701 45.24 23.9801L47.57 24.6001H47.58Z" fill="#F7F8FA"/>
<path d="M50.27 30.82C50.42 31.93 50.25 31.42 49.65 31.34C49.57 31.06 48.62 30.61 48.46 30.72C48.17 30.9 48.71 31.12 48.72 31.19C48.79 31.68 47.36 32.91 46.96 33.21V32.8C46.96 32.8 47.65 32.36 47.32 32.28C45.75 33.32 43.58 33.31 41.83 32.8C41.59 32.73 41.29 32.4 41.26 32.39C41.37 32.41 41.5 32.35 41.57 32.29C42.6 32.35 44.01 31.6 43.23 30.42C43.79 29.99 45.35 29.17 45.51 28.5C45.74 27.54 45.2 26.56 44.21 26.38C43.43 26.24 37.96 26.24 37.16 26.38C36.16 26.55 35.56 27.65 35.86 28.61C36.01 29.08 37.57 30.2 38.04 30.42C37.33 31.73 38.89 32.39 40.01 32.39L40.06 32.6C38.16 33.32 36.11 33.35 34.26 32.5C34.26 32.62 34.55 32.96 34.62 33.02L34.31 33.12C34.01 32.87 32.79 31.7 32.76 31.41C32.71 31.02 33.07 31.04 33.07 31C33.06 30.6 31.9 31 31.72 31.31C32.88 31.02 32.65 31.78 33.17 32.35C34.77 34.08 35.76 36.02 37.21 37.48C37.4 37.67 37.73 38.06 37.94 38.21C37.5 38.86 36.6 36.85 36.59 38C35.73 37.21 32.24 32.29 31.87 32.2C31.59 32.12 31.01 32.45 30.89 32.15C30.84 32.02 30.97 30.91 30.99 30.65C31.57 30.01 31.7 28.99 32.13 28.21C32.63 27.31 33.72 26.06 34.57 25.46C34.82 25.28 35.93 24.93 36.02 24.84C36.25 24.61 35.85 24.34 36.54 23.91C37.04 23.59 37.71 23.72 38.09 23.6C38.19 23.57 38.09 23.32 38.19 23.29C39.79 22.86 41.26 22.86 42.85 23.29C42.96 23.32 42.68 23.53 42.85 23.6C43.21 23.74 43.92 23.54 44.61 23.91C45.56 24.41 45.02 24.73 45.13 24.84C45.2 24.91 46.61 25.39 47 25.67C48.26 26.57 50.05 29.31 50.26 30.85L50.27 30.82Z" fill="#CECECE"/>
<path d="M52.86 40.9702C50.78 41.7602 47.81 41.7302 45.6 41.5902C45.95 40.8802 45.99 39.9502 46.27 39.2102C51.55 39.5102 57.02 36.8702 59.54 32.1602L62.08 32.9402C61.88 36.1002 61.01 34.5502 60.68 34.6502C60.54 34.6902 60.21 35.9702 59.95 36.1002C59.85 36.1502 59.4 36.0502 59.33 36.1002C57.2 37.5602 55.6 39.9302 52.85 40.9702H52.86Z" fill="#ADADAC"/>
<path d="M50.48 30.8201C50.51 31.0801 50.77 32.0001 50.69 32.1201C50.58 32.2801 49.69 32.0601 49.39 32.1701C48.98 32.3201 46.61 36.0101 46.02 36.6801C43.1 40.0301 40.22 41.3101 36.59 37.9801C36.59 36.8301 37.5 38.8401 37.94 38.1901C40.24 39.8001 42.42 39.2901 44.26 37.3601C45.32 36.2401 45.67 34.8901 46.44 33.9401C46.73 33.5801 47.58 33.0801 47.99 32.6401C48.18 32.4501 48.98 31.1501 49.08 31.1401C49.11 31.1401 49.37 31.3101 49.65 31.3501C50.25 31.4301 50.43 31.9401 50.27 30.8301H50.48V30.8201Z" fill="#CECECE"/>
<path d="M64.06 28.0201C64.01 28.5101 63.85 28.8501 63.75 29.3201L63.23 29.2201L63.33 33.0501L62.5 32.6401C62.66 33.1301 61.86 35.8101 61.41 35.8001C61.31 35.8001 61.06 35.2501 60.84 35.4401L60.11 37.2501C59.99 37.1801 59.21 36.7801 59.13 36.8401C57.96 39.1601 55.24 40.2901 52.96 41.1901C52.69 41.2001 52.75 41.1701 52.86 40.9801C55.6 39.9401 57.21 37.5701 59.34 36.1101C59.42 36.0601 59.86 36.1601 59.96 36.1101C60.21 35.9801 60.55 34.7001 60.69 34.6601C61.02 34.5601 61.89 36.1101 62.09 32.9501L59.55 32.1701C57.04 36.8801 51.56 39.5101 46.28 39.2201C46 39.9601 45.96 40.9001 45.61 41.6001C45.47 41.8801 44.75 42.3401 44.78 42.8401C43.79 43.0001 42.79 44.1701 41.2 44.2901C38.59 44.4801 38.14 43.1301 36.69 42.8401C36.72 42.3601 36.01 41.9101 35.86 41.6001C35.5 40.8301 35.53 39.9101 35.29 39.1101C29.76 39.1701 22.57 36.2801 20.83 30.5601C20.72 30.1901 20.71 29.6001 20.62 29.2601C21.08 29.2401 21.69 29.1801 22.12 29.0501C22.72 28.8801 23.14 28.3901 23.73 28.4301C24.8 29.7101 27.42 30.1501 28.96 29.7801C29.76 29.5901 30.27 28.9301 30.88 28.5401C30.99 28.4701 31.27 28.3601 31.4 28.2801C31.37 29.0701 31.06 29.8301 30.99 30.6101C30.97 30.8701 30.83 31.9801 30.89 32.1101C31.01 32.4101 31.59 32.0901 31.87 32.1601C32.23 32.2601 35.73 37.1801 36.59 37.9601C40.22 41.2901 43.1 40.0101 46.02 36.6601C46.6 35.9901 48.98 32.3001 49.39 32.1501C49.69 32.0401 50.57 32.2501 50.69 32.1001C50.77 31.9801 50.52 31.0601 50.48 30.8001C50.36 29.9101 50.05 28.9901 50.07 28.1101C51.95 30.3301 56.39 30.6701 57.95 27.9001C58.82 28.5001 59.84 28.3701 60.8 28.7301C61.63 26.9201 60.75 24.8601 63.29 24.3801C63.99 25.3701 64.18 26.8201 64.07 28.0101L64.06 28.0201Z" fill="#CECECE"/>
<path d="M35.92 39.0002C37.67 42.5302 42.21 43.0502 44.78 40.0902C44.85 40.0002 45.51 38.6102 45.71 39.0502C44.73 44.7702 36.4 44.9902 35.92 39.0002Z" fill="#ADADAC"/>
<path d="M52.86 40.97C52.76 41.16 52.69 41.19 52.96 41.18C49.39 42.6 48.27 42.27 44.77 42.84C44.74 42.33 45.46 41.87 45.6 41.6C47.81 41.74 50.77 41.77 52.86 40.98V40.97Z" fill="#CECECE"/>
<path d="M59.5 14.0301C61.51 14.2101 64.91 11.6201 63.08 9.37011C63.02 9.83011 63.23 10.3901 63.13 10.8701C62.9 12.0101 60.25 13.6701 59.09 13.8201C58.92 13.6801 58.9 13.4701 58.78 13.3001C59.3 12.8401 60.03 12.7001 60.59 12.2601C65.82 8.25011 56.91 -0.749894 54.58 7.29011L53.7 6.56011C52.78 5.62011 51.9 5.78011 52.35 4.12011C52.8 2.46011 55.21 0.340106 57.06 0.550106V1.38011C59.1 0.520106 60.77 1.63011 62.29 2.88011C60.53 2.48011 59.15 0.930106 57.21 2.15011C58.74 1.92011 60 2.29011 61.41 2.82011L60.74 3.18011C61.74 3.23011 62.48 3.50011 63.12 4.32011C63.33 4.59011 64.18 6.39011 64.16 6.60011C64.09 7.14011 63.64 5.68011 63.64 6.50011C63.64 7.06011 64.84 9.08011 64.57 10.0201L63.84 9.71011C64.42 12.2801 61.85 14.1901 59.49 14.0101L59.5 14.0301Z" fill="#4F4F50"/>
<path d="M59.5 14.0301C59.1 13.9901 59.28 13.9801 59.09 13.8201C60.25 13.6701 62.9 12.0101 63.13 10.8701C63.23 10.3901 63.02 9.83012 63.08 9.37012C64.92 11.6201 61.52 14.2201 59.5 14.0301Z" fill="#7C7C7C"/>
<path d="M56.65 1.07007L53.28 4.13007C53.9 2.54007 55.02 1.57007 56.65 1.07007Z" fill="#8A8A89"/>
<path d="M57.58 1.38004C57.73 1.36004 58.25 1.29004 58.25 1.54004L57.06 1.70004C56.95 1.54004 57.55 1.39004 57.58 1.39004V1.38004Z" fill="#8A8A89"/>
<path d="M58.77 13.3002C56.99 10.6902 55.98 8.89019 53.69 6.56019L54.57 7.29019C56.9 -0.749809 65.81 8.26019 60.58 12.2602C60.01 12.6902 59.29 12.8302 58.77 13.3002Z" fill="#DE6C5B"/>
<path d="M58.82 6.67027C61.47 6.17027 60.99 11.7103 58.3 9.68027C57.11 8.78027 57.24 6.97027 58.82 6.67027Z" fill="#FD9988"/>
<path d="M26.64 7.39006C26.17 3.69006 22.23 2.93006 20.11 5.99006C17.99 9.05006 19.17 12.1501 22.49 13.3001C22.36 13.4701 22.4 13.5201 22.18 13.7101C19.63 13.6701 18.18 12.3201 17.98 9.77006C17.22 11.1001 18.17 12.7001 19.28 13.5001C17.33 12.6801 16.54 10.5401 17.62 8.68006C16.75 8.92006 17.12 9.48006 16.84 10.0801C15.82 8.37006 17.87 6.91006 18.45 5.36006L17.26 6.66006C17.42 4.98006 18.59 3.39006 20.32 3.19006L18.82 3.03006C20.27 1.97006 22.31 0.600059 24.21 1.37006V0.550059C26.09 0.0100594 29.63 3.72006 29.13 5.27006C29.08 5.43006 27 7.01006 26.64 7.39006Z" fill="#4F4F50"/>
<path d="M22.18 13.72C22.18 13.72 22.29 13.94 21.87 14.03C21.25 14.16 19.88 13.76 19.28 13.51C18.18 12.71 17.22 11.11 17.98 9.78003C18.18 12.32 19.63 13.68 22.18 13.72Z" fill="#7C7C7C"/>
<path d="M24.52 1.07007C26.46 1.52007 27.76 2.67007 28.41 4.54007L24.52 1.07007Z" fill="#7C7C7C"/>
<path d="M26.64 7.39008C25.67 8.43008 25.5 14 24.05 10.8101C23.5 11.6001 23.08 12.5301 22.5 13.3001C19.18 12.1601 18.11 8.90008 20.12 5.99008C22.23 2.93008 26.18 3.69008 26.65 7.39008H26.64Z" fill="#DE6C5B"/>
<path d="M21.93 6.67011C23.25 6.36011 24.84 8.82011 22.86 9.88011C21.6 10.5601 19.98 9.76011 20.22 8.38011C20.24 8.26011 21.79 6.70011 21.93 6.67011Z" fill="#FD9988"/>
<path d="M44.26 37.3502C42.42 39.2802 40.24 39.7902 37.94 38.1802C37.74 38.0402 37.4 37.6402 37.21 37.4502C37.88 35.8102 39.15 36.5402 40.27 36.5202C41.81 36.4802 43.17 35.8302 44.26 37.3502Z" fill="#DE6C5B"/>
<path d="M46.96 32.7901V33.2001C46.76 33.3601 46.49 33.7001 46.23 33.8201C44.96 34.4401 43.56 34.4901 42.24 34.0301C41.86 33.9001 40.68 32.9801 40.58 32.9901C40.53 32.9901 40.03 33.5201 39.85 33.6101C37.64 34.7201 36.2 34.6801 34.31 33.0901L34.62 32.9901C36.24 34.3601 39.18 33.9701 40.53 32.3701C42.66 33.8501 44.7 34.5801 46.96 32.7801V32.7901Z" fill="#CECECE"/>
<path d="M41.88 31.1301C41.97 31.0901 42.18 31.0501 42.29 31.0301C42.15 31.1901 41.93 31.9501 41.56 32.2701C41.49 32.3301 41.36 32.3901 41.25 32.3701C41.22 32.3601 40.53 32.2201 40.52 32.3701C39.17 33.9801 36.23 34.3601 34.61 32.9901C34.54 32.9301 34.25 32.5901 34.25 32.4701C36.1 33.3301 38.16 33.2901 40.05 32.5701L40 32.3601C39.48 31.9301 39.03 31.3601 38.65 30.8101C39.87 31.5101 40.54 31.7001 41.86 31.1201L41.88 31.1301Z" fill="#ADADAC"/>
<path d="M41.26 32.37C41.26 32.37 41.59 32.72 41.83 32.78C43.59 33.29 45.76 33.31 47.32 32.26C47.64 32.34 46.98 32.76 46.96 32.78C44.71 34.57 42.66 33.85 40.53 32.37C40.53 32.22 41.22 32.36 41.26 32.37Z" fill="#ADADAC"/>
<path d="M43.22 30.4001C44 31.5701 42.59 32.3201 41.56 32.2701C41.93 31.9501 42.14 31.1901 42.29 31.0301C42.61 30.6601 42.93 30.6301 43.22 30.4101V30.4001Z" fill="#CECECE"/>
<path d="M38.56 30.6101C38.58 30.6801 38.63 30.7601 38.66 30.8201C39.04 31.3701 39.48 31.9501 40.01 32.3701C38.89 32.3701 37.33 31.7101 38.04 30.4001C38.2 30.4801 38.39 30.5501 38.56 30.6101Z" fill="#ADADAC"/>
<path d="M49.65 31.33C49.37 31.29 49.11 31.12 49.08 31.12C48.99 31.14 48.18 32.43 47.99 32.62C47.57 33.06 46.73 33.55 46.44 33.92L46.23 33.82C46.49 33.69 46.75 33.35 46.96 33.2C47.36 32.89 48.79 31.67 48.72 31.18C48.71 31.11 48.17 30.9 48.46 30.71C48.63 30.61 49.57 31.06 49.65 31.33Z" fill="#393939"/>
<path d="M34.31 33.1C36.21 34.69 37.64 34.73 39.85 33.62C40.03 33.53 40.53 33 40.58 33C40.68 32.99 41.85 33.9 42.24 34.04C43.56 34.5 44.96 34.45 46.23 33.83L46.44 33.93C45.67 34.88 45.33 36.23 44.26 37.35C43.17 35.83 41.81 36.48 40.27 36.52C39.15 36.55 37.88 35.81 37.21 37.45C35.76 35.99 34.77 34.05 33.17 32.32C32.65 31.76 32.87 30.99 31.72 31.28C31.9 30.97 33.06 30.57 33.07 30.97C33.07 31.02 32.71 31 32.76 31.38C32.79 31.67 34.02 32.84 34.31 33.09V33.1Z" fill="#212221"/>
<path d="M39.13 34.8601C39.79 34.8001 40.35 35.3701 40.58 35.3801C40.82 35.3801 41.42 34.8901 41.62 34.8601C42.1 34.7801 43.93 35.3101 43.17 35.9001C42.16 34.9201 40.99 35.9801 40.48 35.9001C40.41 35.8901 39.81 35.3901 39.44 35.3801C39.34 35.3801 37.53 36.3001 37.83 35.4301C37.85 35.3601 39.06 34.8701 39.13 34.8601Z" fill="#393939"/>
<path d="M43.22 30.4001C42.93 30.6201 42.61 30.6601 42.29 31.0201C42.18 31.0401 41.96 31.0901 41.88 31.1201C41.64 30.6601 40.66 31.0901 40.07 31.0201C39.99 31.0201 38.67 30.6401 38.57 30.6101C38.4 30.5501 38.21 30.4801 38.05 30.4001C37.58 30.1801 36.02 29.0601 35.87 28.5901C35.57 27.6301 36.16 26.5301 37.17 26.3601C37.97 26.2201 43.44 26.2201 44.22 26.3601C45.21 26.5401 45.74 27.5301 45.52 28.4801C45.36 29.1501 43.8 29.9701 43.24 30.4001H43.22Z" fill="#393939"/>
<path d="M38.56 28.4302C38.62 28.7502 39.23 28.7902 39.44 28.9502C39.98 29.3502 40.08 30.1502 40.89 29.9902C41.12 29.9402 42.3 28.4702 42.91 28.4402C43 28.4602 43.51 28.6302 43.53 28.6502C44.28 29.2802 41.84 30.4102 41.3 30.5202C39.95 30.7802 38.34 29.9902 37.41 29.0202C37.39 28.8002 37.66 28.7502 37.82 28.6602C37.97 28.5702 38.36 28.4702 38.55 28.4502L38.56 28.4302Z" fill="#212221"/>
<path d="M43.64 27.4001C43.37 27.0901 42.2 26.9701 41.98 27.4001C41.88 27.4001 41.77 27.4001 41.67 27.4001C41.44 27.0601 39.99 27.0701 39.8 27.4001C38.81 27.4001 37.65 27.2701 36.85 27.6101C36.7 27.4601 37.33 27.0101 37.37 26.9901C37.78 26.7901 42.91 26.6701 43.48 26.7801C43.85 26.8501 44.14 27.1801 44.46 27.3501C44.19 27.3501 43.9 27.3901 43.63 27.4001H43.64Z" fill="#ADADAC"/>
<path d="M41.88 31.1301C40.56 31.7101 39.88 31.5201 38.67 30.8201C38.63 30.7701 38.58 30.6801 38.57 30.6101C38.67 30.6501 40 31.0101 40.07 31.0201C40.66 31.1001 41.64 30.6601 41.88 31.1201V31.1301Z" fill="#212221"/>
<path d="M38.56 28.4301C38.37 28.4401 37.98 28.5501 37.83 28.6401C37.5 28.6101 37.42 28.4701 37.67 28.2301C38.18 27.7501 39.65 27.9301 40.05 28.5401C40.12 28.9701 39.27 28.3801 38.55 28.4401L38.56 28.4301Z" fill="#7C7C7C"/>
<path d="M43.54 28.64C43.54 28.64 43.01 28.45 42.92 28.43C42.35 28.32 42.06 28.41 41.52 28.53C41.71 27.67 44.45 27.77 43.54 28.63V28.64Z" fill="#7C7C7C"/>
<path d="M43.64 27.4002C43.08 27.4302 42.54 27.4002 41.98 27.4002C42.2 26.9702 43.37 27.0902 43.64 27.4002Z" fill="#CECECE"/>
<path d="M41.67 27.4002C41.05 27.4002 40.42 27.4002 39.8 27.4002C39.98 27.0702 41.44 27.0602 41.67 27.4002Z" fill="#CECECE"/>
<path d="M57.94 27.91C56.38 30.68 51.94 30.3301 50.06 28.1201C49.43 27.3801 48.14 25.47 47.57 24.6C47.32 24.22 47.07 23.85 46.84 23.46C47.16 22.99 47.04 23.2601 47.46 23.3601C48.1 24.3001 49.17 24.62 50.26 24.5C53.44 25.01 54.07 21.58 52.75 19.32C52.94 19.08 52.67 18.7201 52.54 18.5401C51.31 16.8801 48.68 15.86 47.25 17.81C47.16 17.93 46.94 18.2101 47.25 18.2801C46.66 19.0001 46.33 20.42 46.32 21.34L45.8 21.2901C45.12 19.3301 44.14 15.8 46.37 14.55C48.93 13.11 52.81 14.91 53.88 17.5C54.11 18.05 54.05 18.87 54.4 19.47C55.85 21.97 60.04 24.16 57.92 27.92L57.94 27.91Z" fill="#4F4F50"/>
<path d="M52.76 19.31C54.08 21.57 53.45 25 50.27 24.49C50.72 24.44 51.15 24.24 51.51 23.97C53.2 22.69 52.41 19.34 50.63 18.48C48.46 17.43 46.99 19.2 46.95 21.28C46.94 22.08 47.01 22.67 47.47 23.35C47.05 23.25 47.16 22.99 46.85 23.45C46.43 22.73 46.09 22.06 45.81 21.27L46.33 21.32C46.34 20.4 46.67 18.98 47.26 18.26C48.8 16.4 51.69 17.47 52.75 19.3L52.76 19.31Z" fill="#212221"/>
<path d="M52.76 19.3099C51.7 17.4799 48.81 16.4199 47.27 18.2699C46.96 18.1999 47.18 17.9199 47.27 17.7999C48.7 15.8399 51.33 16.8599 52.56 18.5299C52.69 18.7099 52.96 19.0699 52.77 19.3099H52.76Z" fill="#393939"/>
<path d="M51.52 23.9801C51.73 23.2701 51.91 22.5001 51.83 21.7501C51.8 21.4701 51.94 21.3401 51.52 21.3901C51.52 21.2901 51.54 21.1801 51.52 21.0801C51.13 18.6801 47.52 19.1201 47.17 21.2901H46.96C47 19.2101 48.47 17.4401 50.64 18.4901C52.42 19.3501 53.21 22.7001 51.52 23.9801Z" fill="#F7F8FA"/>
<path d="M50.7406 23.9715C49.585 23.853 48.5912 24.4457 47.5435 23.0706C45.9026 20.9133 48 18 50.7406 19.2607C52.4124 20.2643 52.4894 22.9837 50.7329 23.9715H50.7406Z" fill="#326C41"/>
<path d="M51.52 21.0702L51 21.2302C51.31 22.0502 50.36 23.2102 49.6 23.3502C49.34 23.4002 48.11 23.1502 48.1 23.3002C48.69 24.3802 50.08 24.1602 50.9 23.3502C49.21 25.4302 46.8 23.5202 47.17 21.2802C47.54 19.0402 51.13 18.6702 51.52 21.0702Z" fill="#212221"/>
<path d="M51.52 21.3801C51.57 22.3601 51.48 22.6301 50.9 23.3501C50.08 24.1501 48.69 24.3801 48.1 23.3001C48.1 23.1501 49.34 23.4001 49.6 23.3501C50.36 23.2001 51.31 22.0401 51 21.2301L51.52 21.0701C51.54 21.1701 51.52 21.2801 51.52 21.3801Z" fill="#45423C"/>
<path d="M50.53 20.3501C51.06 20.2601 51.26 21.1601 50.74 21.2801C50 21.4501 50.09 20.4201 50.53 20.3501Z" fill="#F7F8FA"/>
<path d="M47.16 21.28C46.79 23.53 49.2 25.43 50.89 23.35C51.47 22.63 51.56 22.36 51.51 21.38C51.93 21.33 51.79 21.46 51.82 21.74C51.9 22.49 51.72 23.26 51.51 23.97C51.15 24.24 50.72 24.44 50.27 24.49C49.18 24.61 48.11 24.29 47.47 23.35C47.01 22.67 46.94 22.07 46.95 21.28H47.16Z" fill="#1DE3CF"/>
<path d="M35.35 21.7C34.86 20.73 34.84 19.52 34.21 18.59C34.42 17.38 32.68 16.66 31.67 16.72C30.66 16.78 28.3 18.29 28.41 19.52C27.23 21.73 27.9 24.96 30.9 24.49C31.93 24.61 32.89 24.45 33.59 23.66C33.86 23.91 33.87 23.78 34.21 23.76C33.9 24.25 33.51 24.68 33.28 25.21C32.36 26.02 31.77 27.62 30.9 28.53C30.29 28.92 29.78 29.58 28.98 29.77C27.43 30.14 24.82 29.7 23.75 28.42C20.7 24.78 25.65 21.85 26.96 19.35C27.25 18.8 27.25 17.84 27.48 17.28C28.95 13.65 36.41 12.19 36.29 17.59C36.27 18.61 35.73 20.7 35.36 21.68L35.35 21.7Z" fill="#393939"/>
<path d="M34.21 18.59C34.84 19.52 34.86 20.73 35.35 21.7C35.08 22.43 34.62 23.12 34.21 23.77C33.87 23.79 33.86 23.92 33.59 23.67C34.02 23.19 34.38 22.34 34.42 21.7C34.49 20.67 33.97 19.02 33.02 18.49C30.23 16.91 27.2 21.98 29.76 23.98C30.07 24.22 30.51 24.45 30.9 24.5C27.9 24.96 27.23 21.74 28.41 19.53C29.52 17.45 32.66 16.3 34.21 18.6V18.59Z" fill="#212221"/>
<path d="M34.21 18.59C32.66 16.3 29.52 17.44 28.41 19.52C28.31 18.29 30.64 16.79 31.67 16.72C32.7 16.65 34.42 17.37 34.21 18.59Z" fill="#393939"/>
<path d="M34.41 21.6999H34.1C34.03 19.4899 31.56 18.6899 30.16 20.3999H30.99C30.31 20.5399 29.84 20.8499 29.75 21.5899C29.05 21.9799 29.62 23.3399 29.75 23.9699C27.19 21.9699 30.23 16.8999 33.01 18.4799C33.96 19.0099 34.48 20.6599 34.41 21.6899V21.6999Z" fill="#F7F8FA"/>
<path d="M34.1 21.7001H34.41C34.37 22.3401 34.01 23.1901 33.58 23.6701C32.88 24.4601 31.91 24.6201 30.89 24.5001C30.5 24.4501 30.06 24.2201 29.75 23.9801C29.62 23.3501 29.05 21.9901 29.75 21.6001C29.56 23.1401 31.19 24.7401 32.7 24.1901C33.55 23.8801 33.01 22.8101 33.37 22.0701C34.04 21.6501 33.67 22.7101 33.84 23.0501C34.1 22.6201 34.11 22.1801 34.1 21.7001Z" fill="#1DE3CF"/>
<path d="M33.0462 24.186C31.8906 24.0674 30.8968 24.6601 29.8491 23.2851C28.2081 21.1277 30.581 17.5381 33 19C35 19.9999 34.795 23.1982 33.0385 24.186H33.0462Z" fill="#326C41"/>
<path d="M34.1 21.7C34.12 22.18 34 23.0002 34 23.0002C34 23.0002 34 23.5002 32.7 24.19C31.19 24.74 29.56 23.14 29.75 21.6C29.84 20.85 30.31 20.55 30.99 20.41H30.16C31.55 18.69 34.03 19.5 34.1 21.71V21.7Z" fill="#212221"/>
<path d="M32.5 20.35C33.2 20.15 33.18 21.2 32.71 21.28C32.15 21.38 32.01 20.49 32.5 20.35Z" fill="#F7F8FA"/>
</g>
<defs>
<linearGradient id="paint0_linear_38_134" x1="20.02" y1="24.32" x2="30.52" y2="42.67" gradientUnits="userSpaceOnUse">
<stop stop-color="#CBCBCB"/>
<stop offset="1" stop-color="#A9A9A9"/>
</linearGradient>
<clipPath id="clip0_38_134">
<rect width="78.46" height="109.4" fill="white" transform="translate(0 0.5)"/>
</clipPath>
</defs>
</svg>
